<svg version="1.1" id="Layer_1" xmlns="http://www.w3.org/2000/svg" x="0" y="0" viewBox="0 0 550 222" class="footer__logo" style="width: 350px; margin: -30px 0" xml:space="preserve"><style>.st0{fill:#fff}.st1{fill:#e91c24}</style><g id="CU_x5F_Logo_x5F_Horizontal_x5F_CMYK_x5F_Red_x5F_Black_x5F_White_x5F_on_x5F_darkBG_00000057853264343945004120000005092017762569170314_"><path class="st0" d="m96.19 88.43-6.33.02-.89-5.66c-.84-.83-1.9-1.49-3.17-1.98-1.28-.48-2.78-.72-4.51-.72-3.7.01-6.54 1.36-8.53 4.05-1.99 2.69-2.97 6.2-2.96 10.52v1.49c.01 4.32 1.02 7.83 3.01 10.53 1.99 2.7 4.8 4.04 8.42 4.03 1.67 0 3.2-.25 4.6-.74 1.39-.49 2.46-1.15 3.22-1.99l.86-5.67 6.33-.02.02 8.41c-1.71 1.99-3.89 3.58-6.54 4.76-2.65 1.18-5.62 1.78-8.91 1.79-5.7.02-10.38-1.94-14.03-5.88-3.65-3.94-5.49-9-5.5-15.19v-1.43c-.02-6.17 1.78-11.24 5.38-15.22 3.61-3.98 8.28-5.98 14.02-6 3.29-.01 6.26.58 8.91 1.77 2.65 1.19 4.84 2.76 6.58 4.72l.02 8.41zM119.31 116.54c-.23-.51-.43-1.03-.6-1.57-.17-.54-.31-1.08-.4-1.63-.98 1.14-2.18 2.06-3.58 2.77-1.41.7-3.02 1.06-4.84 1.06-3.01.01-5.4-.8-7.18-2.43-1.77-1.63-2.67-3.86-2.67-6.68-.01-2.88 1.14-5.1 3.44-6.68s5.69-2.37 10.16-2.39l4.23-.01-.01-3.01c0-1.48-.43-2.62-1.29-3.43-.85-.81-2.11-1.21-3.78-1.21-.95 0-1.79.11-2.53.33-.74.22-1.33.48-1.79.79l-.53 3.29-6.25.02.01-6.81c1.51-1.03 3.25-1.89 5.2-2.6 1.96-.71 4.09-1.06 6.4-1.07 3.8-.01 6.9.91 9.28 2.77 2.38 1.86 3.58 4.51 3.59 7.95l.04 12.69c0 .47.01.92.02 1.33.01.42.04.81.1 1.19l2.53.33.02 4.97-9.57.03zm-7.2-5.51c1.25 0 2.38-.28 3.4-.82 1.02-.54 1.81-1.22 2.38-2.04l-.01-4.68-4.23.01c-1.76.01-3.09.42-4 1.25-.91.83-1.36 1.82-1.35 2.97 0 1.04.34 1.85 1.02 2.44.67.58 1.6.87 2.79.87M131.77 111.53l3.97-.86-.06-19.05-4.4-.84-.02-5 12.12-.04.38 4.48c.71-1.59 1.64-2.83 2.77-3.73 1.13-.89 2.45-1.34 3.94-1.35.44 0 .89.03 1.38.1.48.07.88.14 1.21.24l-.86 7.55-3.41-.08c-1.21 0-2.21.24-3.01.72-.79.48-1.4 1.15-1.81 2.02l.04 14.93 3.98.84.01 4.97-16.24.05.01-4.95zM154.14 78.3l-.02-4.99 12.72-.04.12 37.31 4 .84.02 4.97-16.3.05-.01-4.97 4-.87-.1-31.46zM187.38 116.93c-4.43.01-7.97-1.4-10.63-4.23-2.66-2.83-3.99-6.43-4.01-10.8v-1.14c-.01-4.56 1.23-8.32 3.73-11.28 2.5-2.96 5.86-4.44 10.08-4.43 4.14-.01 7.37 1.23 9.66 3.72 2.3 2.49 3.45 5.87 3.47 10.13l.01 4.51-18.34.05-.06.17c.16 2.03.84 3.69 2.04 4.99 1.21 1.3 2.84 1.95 4.9 1.94 1.84-.01 3.36-.19 4.57-.57 1.21-.37 2.53-.96 3.97-1.76l2.26 5.1c-1.27 1.01-2.9 1.85-4.92 2.54-2.01.71-4.26 1.06-6.73 1.06m-.01-25.49c-1.53 0-2.74.59-3.63 1.77-.89 1.18-1.43 2.72-1.63 4.63l.09.14 10.16-.03v-.74c-.01-1.76-.42-3.16-1.25-4.21-.82-1.04-2.07-1.56-3.74-1.56M213.32 77.28l.02 8.26 5.39-.02.02 5.82-5.39.02.05 15.64c0 1.19.25 2.04.75 2.55.49.51 1.16.76 1.99.76.57 0 1.07-.03 1.49-.07.43-.05.9-.13 1.43-.25l.73 5.99c-.93.29-1.84.5-2.75.65-.91.14-1.89.22-2.95.22-2.86.01-5.06-.77-6.61-2.34-1.55-1.57-2.33-4.05-2.34-7.46l-.05-15.67-2.88.01-.02-5.82 2.88-.01-.02-8.26 8.26-.02zM221.47 100.58c-.01-4.58 1.26-8.34 3.81-11.27 2.56-2.93 6.1-4.4 10.62-4.42 4.54-.01 8.1 1.43 10.67 4.34 2.57 2.91 3.87 6.66 3.88 11.26v.6c.01 4.62-1.26 8.38-3.81 11.3-2.56 2.91-6.09 4.38-10.59 4.39-4.56.01-8.13-1.43-10.7-4.33-2.57-2.9-3.87-6.66-3.88-11.27v-.6zm8.29.58c.01 2.8.51 5.05 1.5 6.74.99 1.69 2.58 2.53 4.78 2.53 2.14-.01 3.7-.86 4.69-2.57.99-1.71 1.48-3.95 1.47-6.73v-.6c-.01-2.73-.52-4.95-1.52-6.67-1.01-1.72-2.59-2.58-4.75-2.57-2.16.01-3.73.87-4.71 2.6s-1.46 3.95-1.46 6.68v.59zM252.57 111.16l3.97-.86-.06-19.05-4.4-.84-.02-5 12.12-.04.38 4.4c1.02-1.57 2.27-2.8 3.77-3.67 1.49-.87 3.17-1.32 5.02-1.32 3.1-.01 5.53.96 7.28 2.9s2.63 5 2.64 9.16l.04 13.37 3.98.84.02 4.97-15.84.05-.02-4.97 3.55-.86-.04-13.34c-.01-2.06-.43-3.52-1.26-4.38-.84-.86-2.1-1.29-3.78-1.28-1.1 0-2.08.23-2.95.68-.87.45-1.6 1.08-2.18 1.89l.05 16.47 3.35.84.01 4.97-15.61.05-.02-4.98zM138.44 128.09l.01 2.78-2.46.48.04 12c0 1.52.42 2.65 1.23 3.4.82.75 1.94 1.12 3.36 1.12 1.44 0 2.57-.38 3.39-1.13.82-.75 1.23-1.89 1.22-3.41l-.04-12-2.45-.47-.01-2.78 9.52-.03.01 2.78-2.46.48.04 12c.01 2.58-.84 4.57-2.53 5.97-1.7 1.4-3.92 2.11-6.68 2.12-2.75.01-4.97-.68-6.66-2.08-1.69-1.39-2.54-3.38-2.55-5.96l-.04-12-2.45-.47-.01-2.78 2.45-.01 4.61-.01h2.46zM153.52 148.27l2.21-.48-.03-10.59-2.45-.47-.01-2.78 6.74-.02.21 2.45c.57-.88 1.26-1.56 2.09-2.04.83-.49 1.76-.73 2.79-.73 1.73-.01 3.07.53 4.05 1.61.97 1.08 1.46 2.78 1.47 5.09l.02 7.43 2.21.47.01 2.76-8.81.03-.01-2.76 1.97-.48-.02-7.42c0-1.15-.24-1.96-.7-2.44-.46-.48-1.16-.71-2.1-.71-.61 0-1.16.13-1.64.38s-.89.6-1.21 1.05l.03 9.15 1.86.47.01 2.76-8.68.03-.01-2.76zM174.15 148.21l2.22-.48-.03-10.59-2.46-.47-.01-2.78 7.07-.02.04 13.84 2.21.47.01 2.76-9.04.03-.01-2.76zm6.78-18.43-4.61.01-.01-3.46 4.61-.01.01 3.46zM191.22 136.61l-1.61.31 2.28 7.63.3 1.61h.1l.32-1.61 2.21-7.63-1.65-.31v-2.78l7.75-.02v2.78l-1.48.24-4.99 14.08-4.41.01-5.09-14.05-1.48-.23-.01-2.78 7.75-.02zM209.7 151.19c-2.46.01-4.43-.78-5.91-2.35-1.48-1.57-2.22-3.58-2.23-6.01v-.63c-.01-2.54.68-4.63 2.07-6.27 1.39-1.64 3.26-2.47 5.6-2.46 2.3-.01 4.1.68 5.37 2.07 1.28 1.39 1.92 3.26 1.93 5.63l.01 2.51-10.2.03-.03.09c.09 1.13.47 2.05 1.14 2.78.67.72 1.58 1.08 2.73 1.08 1.02 0 1.87-.11 2.54-.32.67-.21 1.41-.53 2.21-.98l1.26 2.84c-.7.56-1.62 1.03-2.73 1.41-1.13.38-2.38.58-3.76.58m-.45-14.17c-.85 0-1.53.33-2.02.98-.49.65-.8 1.51-.91 2.58l.05.08 5.65-.02v-.41c0-.98-.23-1.76-.69-2.34-.46-.59-1.16-.88-2.08-.87M218.37 148.07l2.21-.48-.03-10.59-2.45-.47-.01-2.78 6.74-.02.21 2.49c.4-.88.91-1.58 1.54-2.07.63-.5 1.36-.74 2.19-.75.24 0 .5.02.77.05.27.04.49.08.67.13l-.48 4.2-1.89-.04c-.67 0-1.23.14-1.67.4-.44.26-.78.64-1.01 1.12l.02 8.3 2.21.47.01 2.76-9.03.03v-2.75zM244.84 139.54l-3.09.01-.5-2.13c-.32-.25-.71-.46-1.19-.63-.48-.17-1.01-.25-1.59-.25-.81 0-1.45.19-1.92.55-.47.36-.71.82-.71 1.37 0 .52.23.94.68 1.28.45.34 1.36.64 2.72.9 2.12.42 3.69 1.03 4.71 1.84s1.54 1.93 1.54 3.37c0 1.54-.65 2.79-1.97 3.77-1.32.98-3.06 1.47-5.21 1.48-1.32 0-2.52-.19-3.62-.57a9.24 9.24 0 0 1-2.93-1.64l-.06-3.84 3.22-.01.64 2.22c.27.23.65.4 1.12.51.47.11.97.16 1.48.16.94 0 1.65-.17 2.14-.51.49-.34.73-.8.73-1.38 0-.5-.25-.94-.75-1.31-.5-.37-1.41-.69-2.73-.97-2.01-.4-3.53-1.01-4.56-1.81-1.03-.8-1.54-1.9-1.55-3.29 0-1.43.58-2.67 1.76-3.71 1.18-1.04 2.85-1.56 5.03-1.57 1.33 0 2.58.17 3.77.52 1.18.35 2.11.81 2.79 1.36l.05 4.28zM247.42 147.98l2.22-.48-.03-10.59-2.46-.47-.01-2.78 7.07-.02.04 13.84 2.21.47.01 2.76-9.04.03-.01-2.76zm6.78-18.42-4.61.01-.01-3.46 4.61-.01.01 3.46zM264.02 129.43l.01 4.18 3-.01.01 3.24-3 .01.03 8.7c0 .66.14 1.14.41 1.42.27.28.64.42 1.11.42.32 0 .59-.02.83-.04.24-.03.5-.07.8-.14l.4 3.33c-.52.16-1.03.28-1.53.36-.5.08-1.05.12-1.64.12-1.59 0-2.81-.43-3.67-1.3-.86-.87-1.29-2.25-1.3-4.15l-.03-8.71-1.59.01-.01-3.24 1.59-.01-.01-4.18 4.59-.01zM286.97 136.32l-1.59.24-6.23 16.64c-.49 1.23-1.15 2.27-1.97 3.1-.82.83-2.07 1.25-3.73 1.26-.39 0-.75-.03-1.1-.09-.34-.06-.74-.15-1.21-.26l.53-3.36.46.06c.16.02.29.03.41.03.77 0 1.36-.19 1.77-.57.41-.37.72-.84.94-1.4l.52-1.3-5.46-14.05-1.59-.25-.01-2.78 8.37-.03.01 2.78-1.91.32 2.36 6.81.24 1.23.09.02 2.68-8.07-1.93-.31-.01-2.78 8.37-.02-.01 2.78zM375.15 98.66l-13.52 14.58 5.84-25.5-7.78 4.12-5.84-15.87-5.84 15.87-7.78-4.12 5.84 25.5-13.8-14.89-.9 6.5-11.32-3.3 5.22 12.35-4.8 1.31 16.18 12.08c18.4-7.1 29.95-5.04 36.71-2.29-1 3.89-2.47 7.5-4.41 10.84-.54-.3-1.12-.59-1.72-.86-2.35-1.07-5.18-1.93-8.57-2.43a46.629 46.629 0 0 0-5.44-.46c-.81-.02-1.65-.03-2.52-.01-3.82.07-8.15.51-13.08 1.45-.19.04-.37.07-.55.1-.89.16-1.77.3-2.62.41-12.36 1.62-19.99-2.04-24.56-6.22-.48-1.37-.88-2.75-1.22-4.16 4.59 4.79 12.67 8.98 26.06 4.35l-18.1-13.51 6.29-1.72-5.87-13.87 12.88 3.76 1.12-8.12 11.9 12.84-5.25-22.9 9.36 4.95 5.7-15.52c.75.1 1.5.21 2.24.32l5.59 15.19 9.36-4.95-5.25 22.9 10.42-11.24.03 2.52z"></path><path class="st0" d="M334.7 136.89c-12.75 1.02-19.93-2.54-23.99-6.94.66 1.62 1.41 3.2 2.26 4.76.04.08.09.16.14.24 3.8 2.79 10.17 5.43 20.89 6.3 11.25.91 18.65 3.94 23.52 7.41 2.94-2.27 5.52-4.77 7.73-7.48-5.51-3.13-14.82-5.55-30.55-4.29"></path><path d="M313.11 134.96c6.08 11 15.86 17.23 27.16 22.15.67.29 1.4.31 2.07 0 3.31-1.54 6.99-3.07 10.1-4.96 1.8-1.1 3.49-2.26 5.08-3.48-4.87-3.47-12.27-6.5-23.52-7.41-10.72-.87-17.09-3.52-20.89-6.3M337.63 133.51c-14.24 2.73-22.77-1.18-27.73-5.7.25.72.52 1.44.81 2.15 4.05 4.4 11.24 7.96 23.99 6.94 15.73-1.26 25.04 1.16 30.55 4.3 1.39-1.7 2.63-3.49 3.72-5.37-6.03-3.32-15.75-5.31-31.34-2.32M369.98 84.47l-5.25 22.9 10.42-11.24c.01-5.11.01-10.21.05-15.32.01-.93-.21-1.45-1.19-1.78-6.21-2.13-12.53-3.79-18.98-4.79l5.59 15.19 9.36-4.96z"></path><path d="m334.75 127.98-18.1-13.51 6.29-1.72-5.87-13.87 12.88 3.76 1.12-8.12 11.9 12.84-5.25-22.9 9.36 4.95 5.7-15.52c-1.57-.21-3.14-.38-4.72-.5-13.4-1.06-26.39 1.04-39.04 5.44-1.22.43-1.65.97-1.63 2.27.07 5.74.07 17.24.07 17.24 0 5.18-.05 10.36.01 15.54.04 3.34.45 6.59 1.21 9.74 4.59 4.81 12.67 8.99 26.07 4.36"></path><path class="st1" d="M373.38 124.99c.86-3.35 1.36-6.9 1.49-10.66.19-5.22.25-10.44.27-15.67l-13.52 14.58 5.84-25.5-7.78 4.12-5.84-15.87L348 91.86l-7.78-4.12 5.84 25.5-13.8-14.89-.9 6.5-11.32-3.3 5.22 12.35-4.8 1.31 16.18 12.08c18.43-7.11 29.98-5.05 36.74-2.3"></path><path class="st0" d="M341.2 73.14a88.021 88.021 0 0 1 11.59.77c.75.1 1.5.21 2.24.32 6.45 1.01 12.77 2.66 18.98 4.79.98.33 1.2.85 1.19 1.78-.05 5.1-.04 10.21-.05 15.32l-.01 2.53c-.02 5.23-.08 10.45-.27 15.67-.13 3.76-.64 7.31-1.49 10.66-1 3.89-2.47 7.5-4.41 10.83a41.386 41.386 0 0 1-3.72 5.36c-2.21 2.71-4.79 5.21-7.73 7.48a54.008 54.008 0 0 1-5.08 3.48c-3.1 1.89-6.79 3.42-10.1 4.96-.33.15-.67.22-1.02.22s-.71-.08-1.05-.22c-11.3-4.92-21.08-11.15-27.16-22.15-.05-.08-.09-.16-.14-.24-.85-1.56-1.6-3.15-2.26-4.76-.29-.71-.48-1.26-.81-2.15-.48-1.37-.88-2.75-1.22-4.16-.76-3.15-1.16-6.4-1.21-9.74-.06-5.18-.01-10.36-.01-15.54 0 0 0-11.49-.07-17.24-.02-1.3.41-1.85 1.63-2.27 10.49-3.63 21.2-5.7 32.18-5.7m0-1.24c-10.58 0-21.54 1.95-32.58 5.78-1.75.61-2.48 1.64-2.46 3.45.07 5.67.07 17.11.07 17.22 0 1.61-.01 3.22-.01 4.83-.01 3.51-.02 7.14.02 10.72.04 3.39.46 6.75 1.24 10v.01c.34 1.43.76 2.86 1.25 4.27 0 .01 0 .01.01.02.08.21.15.4.21.58.21.59.38 1.05.61 1.61.68 1.66 1.46 3.31 2.32 4.89l.09.15c.02.03.04.06.05.1 2.95 5.33 6.86 9.82 11.95 13.74 4.24 3.26 9.26 6.1 15.8 8.95.5.22 1.02.33 1.54.33.53 0 1.05-.11 1.54-.34.71-.33 1.43-.65 2.18-.99 2.73-1.23 5.54-2.51 8.04-4.03 1.82-1.11 3.57-2.31 5.19-3.56 3-2.32 5.67-4.9 7.94-7.68a42.68 42.68 0 0 0 3.82-5.51l.01-.01c1.98-3.4 3.5-7.12 4.52-11.06l.03-.09c.88-3.44 1.4-7.12 1.53-10.92.2-5.67.25-11.38.27-15.71l.01-2.53c0-1.42.01-2.84.01-4.26.01-3.62.01-7.37.05-11.05.01-.97-.18-2.33-2.02-2.96-6.66-2.28-12.93-3.87-19.19-4.84-.77-.12-1.53-.23-2.27-.33-1.62-.21-3.23-.38-4.79-.51-2.32-.17-4.66-.27-6.98-.27"></path></g><path class="st0" d="M440.61 115.91c0 10.62-8.67 17.67-22.62 17.67-13.86 0-22.54-7.05-22.54-17.67 0-6.81 3.41-11.67 9.97-14.27-4.86-2.51-7.62-6.81-7.62-12.4 0-10.05 8.35-15.97 20.19-15.97 11.84 0 20.19 5.92 20.19 15.97 0 5.59-2.76 9.89-7.62 12.4 6.65 2.6 10.05 7.46 10.05 14.27zm-10.94-.65c0-6.16-4.38-9.65-11.67-9.65-7.3 0-11.67 3.49-11.67 9.65 0 6 4.3 9.57 11.67 9.57 7.45 0 11.67-3.57 11.67-9.57zm-21.89-25.37c0 5.19 4.05 8.19 10.21 8.19 6.16 0 10.22-3 10.22-8.19 0-5.35-4.13-8.35-10.22-8.35-6 0-10.21 3-10.21 8.35zM443.12 103.43c0-19.13 7.78-30.16 23.11-30.16 15.4 0 23.19 11.03 23.19 30.16 0 19.13-7.7 30.16-23.19 30.16-15.32-.01-23.11-11.03-23.11-30.16zm34.86 0c0-14.67-4.22-20.92-11.76-20.92-7.46 0-11.67 6.24-11.67 20.92 0 14.67 4.22 20.92 11.67 20.92 7.63-.01 11.76-6.25 11.76-20.92zM395.46 138.78h93.96v18.78h-93.96z"></path><g><path class="st1" d="m406.32 152.36 1.85-.23v-7.43h-1.88v-1.26l4.07-.74v9.43l1.85.23v1.32h-5.9v-1.32zM416.42 152.15c.59 0 1.06-.23 1.43-.68s.54-1.12.54-2.02v-.17c-.25.32-.54.56-.88.72-.34.16-.71.24-1.1.24-1.02 0-1.83-.34-2.41-1.01-.58-.67-.87-1.6-.87-2.78 0-1.11.35-2.04 1.04-2.79.7-.75 1.58-1.13 2.64-1.13 1.12 0 2.03.39 2.73 1.16.7.77 1.05 1.85 1.05 3.25v2.38c0 1.42-.39 2.53-1.16 3.32-.78.79-1.77 1.18-3 1.18-.38 0-.77-.04-1.18-.12-.41-.08-.78-.19-1.12-.34l.25-1.59c.34.13.66.22.98.28.31.07.67.1 1.06.1zm.36-3.51c.37 0 .69-.07.96-.21.27-.14.49-.32.65-.55v-1.18c0-.8-.14-1.41-.42-1.83-.28-.42-.66-.63-1.15-.63-.44 0-.8.22-1.08.65-.28.43-.42.96-.42 1.57 0 .66.12 1.19.37 1.58.26.4.62.6 1.09.6zM428.3 149.6h1.24v1.46h-1.24v1.08l1.17.23v1.32h-4.54v-1.32l1.18-.23v-1.08h-4.48l-.11-1.08 4.56-7.27h2.22v6.89zm-4.72 0h2.52v-3.96l-.05-.01-.18.32-2.29 3.65zM430.5 153.68v-1.44l3.55-3.81c.51-.59.88-1.08 1.09-1.49.22-.4.32-.78.32-1.13 0-.46-.12-.84-.37-1.13-.25-.29-.6-.44-1.06-.44-.51 0-.89.17-1.16.52s-.4.8-.4 1.38h-2.14l-.02-.05c-.02-.99.3-1.83.98-2.51.68-.69 1.59-1.03 2.73-1.03 1.13 0 2.02.29 2.67.88.65.59.97 1.37.97 2.35 0 .66-.18 1.28-.55 1.84-.36.56-.97 1.3-1.81 2.2l-1.95 2.13.02.04h2.85l.09-1.09h1.67v2.77h-7.48zM443.72 149.84h-4.25v-1.7h4.25v1.7zM445.17 153.68v-1.44l3.55-3.81c.51-.59.88-1.08 1.09-1.49.22-.4.32-.78.32-1.13 0-.46-.12-.84-.37-1.13-.25-.29-.6-.44-1.06-.44-.51 0-.89.17-1.16.52s-.4.8-.4 1.38H445l-.02-.05c-.02-.99.3-1.83.98-2.51.68-.69 1.59-1.03 2.73-1.03 1.13 0 2.02.29 2.67.88.65.59.97 1.37.97 2.35 0 .66-.18 1.28-.55 1.84-.36.56-.97 1.3-1.81 2.2l-1.95 2.13.02.04h2.85l.09-1.09h1.67v2.77h-7.48zM461.31 149.41c0 1.45-.33 2.55-1 3.3-.67.75-1.57 1.13-2.7 1.13-1.15 0-2.05-.38-2.72-1.13-.67-.75-1-1.85-1-3.3v-2.42c0-1.45.33-2.55 1-3.3.67-.76 1.57-1.13 2.71-1.13s2.04.38 2.71 1.13c.67.76 1.01 1.86 1.01 3.3v2.42zm-2.2-2.65c0-.87-.13-1.51-.39-1.91-.26-.4-.64-.61-1.13-.61-.5 0-.87.2-1.13.6-.26.4-.38 1.04-.38 1.91v2.86c0 .88.13 1.53.39 1.93.26.4.64.6 1.14.6.49 0 .87-.2 1.12-.6.26-.4.38-1.05.38-1.93v-2.85zM462.52 153.68v-1.44l3.55-3.81c.51-.59.88-1.08 1.09-1.49s.32-.78.32-1.13c0-.46-.12-.84-.37-1.13-.25-.29-.6-.44-1.06-.44-.51 0-.89.17-1.16.52s-.4.8-.4 1.38h-2.14l-.02-.05c-.02-.99.3-1.83.98-2.51.68-.69 1.59-1.03 2.73-1.03 1.13 0 2.02.29 2.67.88.65.59.97 1.37.97 2.35 0 .66-.18 1.28-.55 1.84-.36.56-.97 1.3-1.81 2.2l-1.95 2.13.02.04h2.85l.09-1.09H470v2.77h-7.48zM471.05 153.68v-1.44l3.55-3.81c.51-.59.88-1.08 1.09-1.49.22-.4.32-.78.32-1.13 0-.46-.12-.84-.37-1.13-.25-.29-.6-.44-1.06-.44-.51 0-.89.17-1.16.52s-.4.8-.4 1.38h-2.14l-.02-.05c-.02-.99.3-1.83.98-2.51.68-.69 1.59-1.03 2.73-1.03 1.13 0 2.02.29 2.67.88.65.59.97 1.37.97 2.35 0 .66-.18 1.28-.55 1.84-.36.56-.97 1.3-1.81 2.2l-1.95 2.13.02.04h2.85l.09-1.09h1.67v2.77h-7.48z"></path></g></svg>